<svg xmlns="http://www.w3.org/2000/svg" viewBox="0 0 1500 1500"><defs><style>.cls-1{fill:#7d7d7d;}.cls-2{fill:#2a2a2a;}.cls-3{fill:#760003;}.cls-4{fill:none;stroke:#7d7d7d;stroke-miterlimit:10;stroke-width:1.5px;}</style></defs><g id="Layer_2" data-name="Layer 2"><g id="Layer_1-2" data-name="Layer 1"><circle class="cls-1" cx="750" cy="750" r="750"/><circle class="cls-2" cx="750.5" cy="750.5" r="625"/><circle class="cls-3" cx="1102.5" cy="396.5" r="125"/><path class="cls-1" d="M852.5,999.5H177.07a607.75,607.75,0,0,1-24.57-66,617.36,617.36,0,0,1-27-184l976,1Z"/><path class="cls-1" d="M1332,520.83,853.5,999.5h-354L970,529.19c53.28,52.92,133.15,69.19,202.47,41.31a188.31,188.31,0,0,0,117.32-165.68Z"/><circle class="cls-4" cx="750.5" cy="750.5" r="625"/><rect class="cls-1" x="643.88" y="690.44" width="602.03" height="658.32" transform="translate(-444.21 966.78) rotate(-45)"/><path class="cls-2" d="M1202.31,1348.31,853.5,999.5,925,928l353.83,353.83c-11.35,11.27-23.77,22.9-37.33,34.67S1214.94,1338.73,1202.31,1348.31Z"/><path class="cls-3" d="M62,750a661.36,661.36,0,0,1,8.79-135.15,689.45,689.45,0,0,1,35.45-131.63,676.93,676.93,0,0,1,146.49-230.7,699.14,699.14,0,0,1,105.14-89.41,657.82,657.82,0,0,1,58.84-36.54,684.92,684.92,0,0,1,62.41-30.28c10.66-4.53,21.43-8.75,32.31-12.75s21.95-7.57,33-10.93q33.31-10,67.41-16.54c22.71-4.41,45.63-7.64,68.65-9.85,11.5-1.21,23.06-1.81,34.6-2.49l17.34-.58c1.45,0,2.89-.11,4.34-.12H758.5c2.9,0,5.79.18,8.68.26l17.34.6c5.78.35,11.54.78,17.32,1.17l8.65.61,8.63.9a692.64,692.64,0,0,1,68.6,10.23c22.68,4.51,45.16,10,67.28,16.79,5.54,1.68,11,3.49,16.54,5.23s11,3.76,16.42,5.63l8.14,3c2.71,1,5.43,2,8.12,3.07,5.38,2.13,10.77,4.24,16.1,6.52,10.68,4.49,21.28,9.19,31.62,14.34l7.8,3.78,3.9,1.89,3.84,2,15.34,8.07q30.4,16.66,59,36.27a684,684,0,0,1,105.48,89.09c8,8.32,15.85,16.69,23.36,25.41,3.83,4.29,7.44,8.77,11.14,13.17l5.51,6.62,5.33,6.78a668.36,668.36,0,0,1,39.9,56.11,675.63,675.63,0,0,1,33.91,59.76q15.33,30.71,27.65,62.72,6.06,16,11.3,32.3c.88,2.71,1.79,5.41,2.64,8.13l2.43,8.2,2.43,8.19c.8,2.72,1.47,5.5,2.21,8.24a660.61,660.61,0,0,1,21.64,134.2c.67,11.29,1,22.59,1,33.88s-.24,22.56-.8,33.81c-.31-5.63-.59-11.24-1-16.85s-.88-11.22-1.34-16.81c-1.11-11.19-2.28-22.35-3.9-33.44q-4.57-33.31-12.25-66a714.33,714.33,0,0,0-42.54-126.37q-13.61-30.37-29.94-59.32c-10.9-19.25-22.64-38-35.33-56.08a700.46,700.46,0,0,0-85.61-100.44q-23.68-23-49.51-43.48c-4.35-3.35-8.62-6.8-13-10.12l-13.21-9.83-13.45-9.46c-4.52-3.1-9.13-6.07-13.69-9.11-18.39-11.93-37.36-22.93-56.7-33.17l-14.67-7.38-3.66-1.84-3.73-1.73-7.45-3.45c-9.89-4.7-19.94-8.95-30.08-13s-20.41-7.77-30.71-11.42c-5.2-1.7-10.37-3.47-15.58-5.13s-10.45-3.23-15.7-4.75q-31.5-9.2-63.8-15.28c-21.49-4.06-43.14-7.4-64.92-9.32l-8.16-.83-8.18-.56-16.36-1.09-16.39-.52c-2.73-.08-5.46-.21-8.19-.25h-20.5c-1.36,0-2.73.07-4.1.11L717,83.62c-10.91.62-21.84,1.19-32.72,2.28q-32.67,2.94-65,8.94c-21.51,4-42.81,9-63.8,15-10.48,3-20.88,6.29-31.16,9.88s-20.55,7.42-30.67,11.53a663.2,663.2,0,0,0-116.06,61Q350.07,210.31,324.37,231c-17.16,13.71-33.64,28.31-49.44,43.63a687.7,687.7,0,0,0-150.6,216c-9,20.27-17,41-24.19,62.12s-13.25,42.56-18.48,64.28A760.86,760.86,0,0,0,62,750Z"/></g></g></svg>