<svg xmlns="http://www.w3.org/2000/svg" viewBox="0 0 1500 750"><defs><style>.cls-1{fill:#7d7d7d;}.cls-2{fill:#760003;}.cls-3{fill:#2a2a2a;}.cls-4{fill:#555;}</style></defs><g id="Layer_2" data-name="Layer 2"><g id="Layer_1-2" data-name="Layer 1"><path class="cls-1" d="M1500,750H750L1500,0Z"/><path class="cls-2" d="M875,525c-74.29-99.1-64.33-239.22,23.25-326.8S1125.93,100.68,1225,175Z"/><path class="cls-3" d="M1500,750,1312.5,562.5,750,750Z"/><path class="cls-4" d="M1500,750,1312,562,1500,0Z"/><path class="cls-2" d="M1125,750q10.57-12.86,21.48-25.4c7.24-8.38,14.58-16.67,21.94-24.93q22.11-24.76,44.79-49,45.32-48.44,92.22-95.28t95.26-92.24q24.24-22.63,49-44.79,12.4-11,24.94-21.93T1500,375q-10.57,12.87-21.47,25.41t-21.93,24.94q-22.11,24.76-44.79,49-45.32,48.44-92.24,95.26t-95.28,92.22q-24.24,22.63-49,44.79c-8.26,7.36-16.55,14.7-24.93,21.94S1133.57,743,1125,750Z"/><rect class="cls-3" width="100" height="750"/><path class="cls-3" d="M700,700l-87-75a12.18,12.18,0,0,0,8-3,14.91,14.91,0,0,0,4-9c1-8.41,1.06-105.55.41-238H375L475,275h150c.94-75,.89-129.7,0-138-.18-1.56-.66-6-4-9a12.18,12.18,0,0,0-8-3H137a12.18,12.18,0,0,0-8,3,12.4,12.4,0,0,0-4,9L0,0H1400L1269.52,130.48C1145.37,32.34,965.43,43.06,854,155,742.94,266.57,732.68,445.78,830.49,569.51Z"/><path class="cls-1" d="M700,700l-87-75H137a12.18,12.18,0,0,1-8-3c-3.34-3-3.82-7.38-4-9-.94-8.3-1-63,0-138H275L375,375H125V137L0,0V750H650Z"/></g></g></svg>